<?xml version="1.0" encoding="utf-8"?>
<!-- Generator: Adobe Illustrator 24.3.0, SVG Export Plug-In . SVG Version: 6.00 Build 0)  -->
<svg version="1.1" id="Слой_1" xmlns="http://www.w3.org/2000/svg" xmlns:xlink="http://www.w3.org/1999/xlink" x="0px" y="0px"
	 viewBox="0 0 200 200" enable-background="new 0 0 200 200" xml:space="preserve">
<path fill="#FFFFFF" stroke="#20201E" stroke-width="4.1522" stroke-linecap="round" stroke-linejoin="round" d="M190.304,175.544
	c-1.512-0.824-15.13-14.206-27.762-14.206c-6.566,0-11.715,1.982-16.256,3.73c-4.605,1.773-8.953,3.448-15.246,3.448
	c-7.335,0-13.424-2.238-18.801-4.212c-4.333-1.591-8.076-2.966-11.905-2.966c-3.828,0-7.569,1.375-11.903,2.966
	c-5.373,1.974-11.463,4.212-18.8,4.212c-6.294,0-10.643-1.675-15.247-3.448c-4.541-1.747-9.69-3.73-16.257-3.73
	c-12.63,0-26.249,13.382-27.76,14.206c0,0,5.796-3.439,10.615-3.439s9.548,3.588,17.146,3.588c3.9,0,7.076,1.223,11.1,2.773
	c5.098,1.962,11.441,4.405,20.404,4.405c9.889,0,17.9-2.941,23.75-5.089c2.663-0.98,5.679-2.089,6.953-2.089
	c1.279,0,4.294,1.109,6.956,2.089c5.849,2.148,13.86,5.089,23.751,5.089c8.961,0,15.305-2.442,20.404-4.405
	c4.02-1.55,7.199-2.773,11.098-2.773c7.599,0,10.733-3.588,17.147-3.588c6.464,0,10.677,3.438,10.677,3.438L190.304,175.544z"/>
<path fill="#FFFFFF" stroke="#20201E" stroke-width="4.1522" d="M114.259,30.049c-0.513-0.168-1.044-0.31-1.584-0.423
	c2.577-0.958,4.42-3.431,4.42-6.343c0-3.738-3.029-6.767-6.767-6.767s-6.768,3.029-6.768,6.767c0,2.597,1.464,4.847,3.611,5.984
	c-19.423,1.261-48.908,26.847-49.847,70.167c-0.374,17.212,1.809,31.302,7.82,41.535l64.988-0.463
	c9.501-11.987,18.238-27.159,18.238-47.053c0-26.467-19.32-58.565-34.113-63.422C114.259,30.03,114.259,30.049,114.259,30.049z"/>
<path fill="#FFFFFF" stroke="#20201E" stroke-width="4.1522" d="M133.724,78.7c-7.145-23.314-26.007-46.138-42.639-49.152
	c2.472-1.008,4.212-3.434,4.212-6.264c0-3.738-3.029-6.767-6.767-6.767c-3.737,0-6.768,3.029-6.768,6.767
	c0,2.64,1.517,4.924,3.724,6.038c-1.148,0.125-2.274,0.364-3.376,0.728c-14.756,4.856-33.653,37.483-33.653,63.405
	c0,19.12,7.747,35.592,16.687,47.515l64.988-0.463c6.149-10.265,13.679-28.859,3.583-61.812L133.724,78.7z"/>
<path fill="#FFFFFF" stroke="#000000" stroke-width="3.1886" stroke-linejoin="bevel" d="M129.923,167.627
	c-8.166-3.746-19.735-6.413-31.345-6.413c-11.616,0-22.489,2.364-32.243,6.653c9.754,4.286,20.446,6.78,32.059,6.78
	c11.621,0,21.789-2.736,31.546-7.021L129.923,167.627z"/>
<path fill="#FFFFFF" stroke="#20201E" stroke-width="4.1522" stroke-linejoin="bevel" d="M126.533,145.039l-0.006-0.008
	c-7.912-3.401-17.015-6.252-28.791-6.252c-11.787,0-20.877,2.854-28.791,6.261c0,0-1.773,11.519-1.945,14.12
	c-0.267,3.987-0.668,8.705-0.668,8.705c9.754-4.289,20.627-6.653,32.243-6.653c11.388,0,21.73,2.278,31.345,6.413
	c-0.345-3.192-0.745-6.381-1.542-11.167c-0.436-2.542-1.864-11.452-1.864-11.452L126.533,145.039z"/>
<path fill="#FFFFFF" stroke="#20201E" stroke-width="4.1522" stroke-linejoin="bevel" d="M66.322,167.869
	c9.754-4.289,20.627-6.653,32.243-6.653c11.388,0,21.73,2.278,31.345,6.413c-0.247-2.67-0.838-4.335-1.21-7.743
	c-9.662-3.385-19.457-5.112-30.285-5.112c-10.95,0-21.801,1.988-31.556,5.446c-0.048,3.002-0.557,7.651-0.557,7.651L66.322,167.869z
	"/>
<path fill="#FFFFFF" stroke="#20201E" stroke-width="4.1522" d="M68.937,145.039c7.913-3.404,17.011-6.32,28.801-6.395
	c10.038-0.066,20.88,2.986,28.794,6.391c0.434-0.435,2.272-0.993,3.603-4.532c-6.654-7.204-16.548-10.967-32.396-10.967
	c-16.911,0-25.939,4.217-32.592,11.43c1.307,3.535,3.341,3.632,3.777,4.067L68.937,145.039z"/>
<line fill="none" stroke="#000000" stroke-width="3.1886" x1="97.747" y1="129.544" x2="97.747" y2="138.647"/>
<polygon fill="#FFFFFF" stroke="#000000" stroke-width="2.4221" points="114.573,80.857 111.402,84.028 95.471,84.028 
	95.471,69.662 98.643,66.49 92.251,60.104 85.86,66.49 89.056,69.696 89.056,84.028 73.052,84.028 69.881,80.857 63.489,87.248 
	69.881,93.64 73.077,90.444 89.056,90.444 89.056,107.997 85.86,111.192 92.251,117.584 98.643,111.192 95.471,108.021 
	95.471,90.444 111.378,90.444 114.573,93.64 120.965,87.248 "/>
</svg>
