<?xml version="1.0" encoding="utf-8"?>
<!-- Generator: Adobe Illustrator 24.3.0, SVG Export Plug-In . SVG Version: 6.00 Build 0)  -->
<svg version="1.1" id="Слой_1" xmlns="http://www.w3.org/2000/svg" xmlns:xlink="http://www.w3.org/1999/xlink" x="0px" y="0px"
	 viewBox="0 0 200 200" enable-background="new 0 0 200 200" xml:space="preserve">
<path fill="#20201E" d="M190.302,176.584c-1.512-0.825-15.13-14.207-27.76-14.207c-6.567,0-11.716,1.981-16.256,3.731
	c-4.606,1.773-8.954,3.447-15.247,3.447c-7.335,0-13.424-2.239-18.8-4.213c-4.334-1.589-8.076-2.965-11.907-2.965
	c-3.828,0-7.571,1.376-11.904,2.965c-5.373,1.974-11.463,4.213-18.798,4.213c-6.295,0-10.643-1.674-15.247-3.447
	c-4.541-1.75-9.689-3.731-16.255-3.731c-12.633,0-26.251,13.382-27.762,14.207c0,0,5.498-3.44,10.615-3.44
	c5.118,0,9.549,3.589,17.148,3.589c3.898,0,7.074,1.222,11.098,2.771c5.098,1.965,11.44,4.405,20.404,4.405
	c9.89,0,17.9-2.941,23.749-5.088c2.662-0.979,5.679-2.088,6.953-2.088c1.279,0,4.293,1.109,6.956,2.088
	c5.85,2.147,13.86,5.088,23.751,5.088c8.962,0,15.307-2.44,20.404-4.405c4.022-1.549,7.199-2.771,11.099-2.771
	c7.598,0,13.356-3.589,17.146-3.589c3.79,0,10.677,3.438,10.677,3.438L190.302,176.584z"/>
<path fill="#FFFFFF" stroke="#20201E" stroke-width="4.1522" d="M148.588,94.486c0-22.648-19.325-58.548-34.115-63.402
	c-0.514-0.169-1.044-0.311-1.588-0.424c2.579-0.956,4.424-3.431,4.424-6.343c0-3.738-3.032-6.767-6.767-6.767
	c-3.736,0-6.77,3.029-6.77,6.767c0,2.597,1.468,4.847,3.614,5.984c-3.032,0.196-6.308,0.985-9.683,2.344
	c-2.153-0.979-4.295-1.68-6.405-2.064c2.468-1.008,4.211-3.434,4.211-6.264c0-3.738-3.029-6.767-6.767-6.767
	c-3.738,0-6.767,3.029-6.767,6.767c0,2.64,1.516,4.924,3.721,6.038c-1.146,0.127-2.273,0.364-3.376,0.729
	c-14.756,4.855-33.65,39.427-33.65,63.402c0,19.12,7.747,35.592,16.688,47.515c1.331,3.535,3.355,3.639,3.792,4.076
	c0.001,0,0.002-0.002,0.004-0.002c-0.008,0.059-1.772,11.524-1.945,14.113c-0.266,3.991-0.668,8.705-0.668,8.705
	c9.756,4.291,20.446,6.783,32.059,6.783c11.616,0,21.779-2.733,31.532-7.022c-0.348-3.19-0.746-6.377-1.544-11.164
	c-0.416-2.504-1.849-11.42-1.849-11.42c0.435-0.433,3.066-3.733,3.066-3.733c9.491-11.984,18.763-27.963,18.763-47.84
	L148.588,94.486z"/>
<path stroke="#000000" stroke-width="1.6765" d="M69.395,146.078c7.912-3.409,17.01-6.398,28.798-6.398
	c11.785,0,20.879,2.986,28.791,6.391c0.434-0.433,1.468-1.542,3.604-4.532c-6.657-7.204-16.345-11.162-32.193-11.162
	c-16.91,0-26.14,4.412-32.796,11.625c1.356,3.51,3.389,3.632,3.825,4.067L69.395,146.078z"/>
<path fill="#FFFFFF" stroke="#000000" stroke-width="3.1886" stroke-linejoin="bevel" d="M129.873,168.643
	c-9.758-4.286-19.736-6.412-31.35-6.412s-22.486,2.364-32.241,6.651c9.755,4.291,20.445,6.783,32.059,6.783
	c11.621,0,21.789-2.736,31.546-7.021L129.873,168.643z"/>
<path stroke="#000000" stroke-width="1.6765" d="M129.607,142.326c6.145-10.271,14.229-29.641,4.127-62.606
	c-8.476-27.658-33.449-54.645-51.614-48.648c-16.112,5.32-33.65,43.417-33.65,63.402c0,19.12,7.744,35.592,16.685,47.515
	l64.472,0.315L129.607,142.326z"/>
<circle stroke="#000000" stroke-width="1.6765" cx="88.546" cy="24.3" r="6.767"/>
<path stroke="#000000" stroke-width="1.6765" stroke-linejoin="bevel" d="M126.532,146.054l-0.002-0.007
	c-7.912-3.402-17.013-6.254-28.791-6.254c-11.787,0-20.877,2.854-28.791,6.261c0,0-1.773,11.521-1.946,14.117
	c-0.266,3.991-0.667,8.705-0.667,8.705c9.754-4.286,20.629-6.651,32.239-6.651c11.391,0,21.734,2.279,31.35,6.412
	c-0.346-3.19-0.746-6.377-1.543-11.164c-0.436-2.518-1.864-11.452-1.864-11.452L126.532,146.054z"/>
<path fill="none" stroke="#FFFFFF" stroke-width="1.6765" stroke-linecap="round" stroke-linejoin="bevel" d="M126.242,161.5
	c-8.77-2.724-18.134-4.22-27.796-4.22c-9.826,0-19.868,1.601-28.876,4.428"/>
<g>
	<path fill="none" stroke="#FFFFFF" stroke-width="1.6765" stroke-linecap="round" d="M71.453,145.013
		c7.328-2.951,15.731-5.351,26.293-5.351c10.618,0,19.05,2.426,26.406,5.395"/>
	<path fill="none" stroke="#FFFFFF" stroke-width="1.6765" stroke-linecap="round" d="M128.929,139.808
		c-9.302-7.44-16.746-9.434-30.522-9.434c-11.538,0-23.443,3.055-29.147,8.28"/>
</g>
<polygon fill="#FFFFFF" stroke="#000000" stroke-width="1.6765" points="114.572,81.896 111.425,85.068 95.494,85.068 
	95.494,70.687 98.666,67.515 92.274,61.124 85.883,67.515 89.078,70.711 89.078,85.068 73.051,85.068 69.88,81.896 63.488,88.288 
	69.88,94.68 73.1,91.484 89.078,91.484 89.078,109.012 85.883,112.208 92.274,118.6 98.666,112.208 95.494,109.036 95.494,91.484 
	111.376,91.484 114.572,94.68 120.964,88.288 "/>
</svg>
