<?xml version="1.0" encoding="utf-8"?>
<!-- Generator: Adobe Illustrator 24.3.0, SVG Export Plug-In . SVG Version: 6.00 Build 0)  -->
<svg version="1.1" id="Слой_1" xmlns="http://www.w3.org/2000/svg" xmlns:xlink="http://www.w3.org/1999/xlink" x="0px" y="0px"
	 viewBox="0 0 200 200" enable-background="new 0 0 200 200" xml:space="preserve">
<path stroke="#000000" stroke-width="0.975" d="M116.937,68.594c3.817-2.257,5.429-5.277,5.429-8.599
	c0-0.973,0.138-46.805,0.138-46.805H77.066c0,0-0.214,46.226-0.214,46.805c0,3.347,2.372,6.387,6.241,8.65
	c-2.737,0.398-5.443,0.886-8.12,1.473c4.28,2.735,8.323,5.93,12.064,9.574c5.3,5.156,9.685,10.865,13.128,17.021
	c3.442-6.156,7.83-11.865,13.125-17.021c3.748-3.644,7.794-6.844,12.075-9.579c-2.738-0.593-5.56-1.072-8.382-1.496L116.937,68.594z
	"/>
<path d="M158.736,172.765c-2.811-5.636-2.888-13.006-1.64-17.984c1.279-5.121,13.409-14.811,13.409-14.811
	c21.368-20.784,26.261-50.412,10.931-66.171c-15.335-15.758-45.08-11.675-66.448,9.112c-6.38,6.21-11.275,13.206-14.621,20.389
	c-3.343-7.182-8.244-14.179-14.621-20.389C64.38,62.123,34.63,58.04,19.296,73.798C3.968,89.557,8.863,119.186,30.226,139.97
	c0.965,0.937,11.613,9.691,12.893,14.811c1.277,5.115,1.455,12.469-1.618,18.174h0.462c-0.068,0.039-0.134,0.063-0.203,0.102
	c17.681,8.72,37.579,13.626,58.622,13.626c21.026-0.028,40.641-5.221,58.337-13.942"/>
<g>
	<path stroke="#FFFFFF" stroke-width="3.1741" stroke-linecap="round" d="M44.856,171.721c17.016-7.94,35.832-12.347,55.847-12.347
		c19.227,0,37.68,4.721,54.143,11.427"/>
	<path stroke="#FFFFFF" stroke-width="3.1741" stroke-linecap="round" d="M163.025,138.757c-17.722-6.014-39.439-9.558-62.903-9.558
		c-23.67,0-45.557,3.611-63.366,9.721"/>
</g>
<polygon fill="none" stroke="#FFFFFF" stroke-width="1.9503" stroke-linejoin="bevel" points="118.8,16.495 80.671,50.673 
	118.8,50.673 80.671,16.495 "/>
<path fill="none" stroke="#FFFFFF" stroke-width="3.1741" stroke-linecap="round" d="M151.934,159.613
	c-16.319-5.73-33.681-9.886-51.69-9.886c-18.356,0-36.038,4.272-52.622,10.203"/>
<polygon fill="#FFFFFF" stroke="#000000" stroke-width="0.9974" points="91.311,140.393 100.258,144.853 109.204,140.393 
	100.258,135.906 "/>
<polygon fill="#FFFFFF" stroke="#000000" stroke-width="0.9974" points="54.762,146.207 64.302,149.171 72.402,143.329 
	62.862,140.337 "/>
<polygon fill="#FFFFFF" stroke="#000000" stroke-width="0.9974" points="145.781,146.207 136.214,149.171 128.114,143.329 
	137.653,140.337 "/>
<rect x="80.671" y="16.495" fill="none" stroke="#FFFFFF" stroke-width="1.9503" stroke-linejoin="bevel" width="38.146" height="34.178"/>
<ellipse fill="none" stroke="#FFFFFF" stroke-width="1.9503" cx="100.06" cy="66.224" rx="16.082" ry="11.878"/>
</svg>
