<?xml version="1.0" encoding="utf-8"?>
<!-- Generator: Adobe Illustrator 24.3.0, SVG Export Plug-In . SVG Version: 6.00 Build 0)  -->
<svg version="1.1" id="Слой_1" xmlns="http://www.w3.org/2000/svg" xmlns:xlink="http://www.w3.org/1999/xlink" x="0px" y="0px"
	 viewBox="0 0 200 200" enable-background="new 0 0 200 200" xml:space="preserve">
<path fill="#FFFFFF" stroke="#20201E" stroke-width="3.809" d="M122.709,12.946H77.273v47.485c0,6.991,10.225,12.664,22.832,12.664
	c12.615,0,22.515-5.673,22.515-12.664c0-0.618,0.085-47.485,0.085-47.485H122.709z"/>
<rect x="77.27" y="12.946" fill="#FFFFFF" stroke="#20201E" stroke-width="3.809" width="45.436" height="40.714"/>
<line fill="none" stroke="#20201E" stroke-width="3.809" x1="77.27" y1="12.946" x2="122.709" y2="53.657"/>
<line fill="none" stroke="#20201E" stroke-width="3.809" x1="122.709" y1="12.946" x2="77.27" y2="53.657"/>
<path fill="#FFFFFF" stroke="#20201E" stroke-width="3.809" stroke-linejoin="round" d="M158.665,172.391
	c-17.678-8.723-36.893-13.309-57.939-13.309c-21.046,0-41.171,4.891-58.853,13.612c17.682,8.723,37.466,13.746,58.509,13.746
	c21.054,0.028,40.613-5.306,58.28-14.027L158.665,172.391z"/>
<path fill="#FFFFFF" stroke="#20201E" stroke-width="3.809" stroke-linejoin="bevel" d="M167.498,142.475
	c1.014-0.887,2.02-1.796,3.007-2.753c21.366-20.788,26.26-50.414,10.931-66.171c-15.335-15.758-45.08-11.675-66.445,9.112
	c-6.383,6.208-11.281,13.207-14.624,20.388c-3.34-7.181-8.241-14.18-14.621-20.388c-21.364-20.787-51.117-24.87-66.445-9.112
	C3.967,89.307,8.86,118.935,30.229,139.721c0.989,0.961,2,1.873,3.021,2.76c18.448-6.928,41.767-11.067,67.134-11.067
	c25.344,0,48.656,4.149,67.086,11.063L167.498,142.475z"/>
<path fill="#FFFFFF" stroke="#20201E" stroke-width="3.809" d="M100.384,103.076c3.343-7.182,8.241-14.18,14.624-20.386
	c5.201-5.066,10.906-9.131,16.779-12.167c-9.74-2.74-20.318-4.243-31.387-4.243c-11.074,0-21.663,1.508-31.406,4.252
	c5.865,3.035,11.567,7.097,16.768,12.159c6.378,6.209,11.261,13.208,14.619,20.377L100.384,103.076z"/>
<path fill="#FFFFFF" stroke="#20201E" stroke-width="3.809" stroke-linejoin="bevel" d="M167.244,142.475l-0.011-0.015
	c-18.439-6.919-41.744-11.052-67.089-11.052c-25.366,0-48.684,4.14-67.131,11.067c0,0,8.848,6.93,10.129,12.05
	c1.279,5.115,1.827,12.452-1.247,18.156c17.679-8.722,37.807-13.612,58.853-13.612c20.643,0,40.517,4.899,57.939,13.309
	c-2.811-5.632-2.817-12.878-1.571-17.853c1.27-5.08,10.132-12.023,10.132-12.023L167.244,142.475z"/>
<path fill="#FFFFFF" stroke="#20201E" stroke-width="3.809" stroke-linejoin="bevel" d="M41.879,172.701
	c17.679-8.722,37.807-13.612,58.853-13.612c20.643,0,40.514,4.899,57.939,13.309c-1.196-2.406-2.453-8.551-2.252-11.978
	c-17.513-6.885-36.345-10.648-55.966-10.648c-19.847,0-38.88,3.842-56.559,10.871c0.226,6.35-0.677,9.539-2.004,12.023
	L41.879,172.701z"/>
<polygon points="91.748,140.838 100.497,145.212 109.218,140.838 100.497,136.463 "/>
<polygon points="55.99,146.539 65.304,149.446 73.234,143.716 63.921,140.809 "/>
<polygon points="144.977,146.539 135.663,149.446 127.733,143.716 137.046,140.809 "/>
<ellipse fill="#FFFFFF" stroke="#20201E" stroke-width="3.809" cx="100.384" cy="66.925" rx="16.085" ry="11.877"/>
</svg>
