<?xml version="1.0" encoding="utf-8"?>
<!-- Generator: Adobe Illustrator 24.3.0, SVG Export Plug-In . SVG Version: 6.00 Build 0)  -->
<svg version="1.1" id="Слой_1" xmlns="http://www.w3.org/2000/svg" xmlns:xlink="http://www.w3.org/1999/xlink" x="0px" y="0px"
	 viewBox="0 0 200 200" enable-background="new 0 0 200 200" xml:space="preserve">
<path fill="#FFFFFF" stroke="#20201E" stroke-width="3.4947" d="M57.232,34.923c0,0,2.964-15.925,2.964-18.147
	s2.22-2.593,4.443,0.37c2.223,2.962,12.222,17.406,12.222,17.406l-19.635,0.369L57.232,34.923z"/>
<path fill="#FFFFFF" stroke="#20201E" stroke-width="3.4947" d="M190.107,157.075c-1.004-7.182-2.377-14.029-4.049-20.538
	l-5.366-2.142l3.582-4.286c-2.04-6.885-4.412-13.367-7.02-19.462l-5.079-1.435l2.512-4.294c-2.729-5.795-5.659-11.201-8.7-16.235
	l-4.735-0.951l1.701-3.909c-3.412-5.262-6.916-10.067-10.393-14.429l-5.012-0.549l1.338-3.903c-4.067-4.777-8.03-8.931-11.695-12.48
	l-5.012-0.282l0.874-3.591c-8.94-8.09-15.259-12.027-15.259-12.027l-11.356,3.458c0,0-5.429-2.964-9.874-5.926
	c0,0-2.964-9.876-3.947-15.307c-0.991-5.431-3.952-2.964-4.941-1.482c-0.986,1.482-11.234,12.837-11.234,12.837
	s-6.128-0.837-10.495,0c-6.415,1.238-9.378,5.557-16.79,12.593c-5.398,5.133-8.638,9.632-10.487,14.443
	c-1.852,4.814,0.368,4.814-0.368,9.259c-0.746,4.444-20.745,37.774-22.963,41.847c-2.225,4.074-7.589,16.532,2.961,24.442
	c2.958,2.223,5.186,3.337,7.036,4.074c0,0,2.961-0.737,4.072-2.219c0.198-0.265,0.297-0.427,0.347-0.517
	c0.037-0.099,0.055-0.106,0,0c-0.112,0.288-0.37,1.371,0.764,2.735c1.852,2.224,4.232,2.058,5.554,2.224
	c1.975,0.248,5.554-1.479,8.52-5.926c2.964-4.444,4.816-5.927,7.039-8.519c2.217-2.592,14.476-8.327,19.258-16.294
	c1.109-1.848,3.702-1.111,5.551,0.372c1.852,1.482,12.222,1.854,16.665-5.557c0,0,2.1,19.482-6.665,32.962
	c-14.442,22.22-38.885,27.772-46.293,48.515h151.839c0-7.168-0.378-14.05-1.062-20.669l-5.048-2.664l4.354-4.114L190.107,157.075z"
	/>
<path fill="none" stroke="#20201E" stroke-width="2.684" d="M111.862,44.967c0,0,64.683,48.395,64.683,135.792"/>
<path fill="none" stroke="#20201E" stroke-width="2.684" d="M29.743,134.074C29.796,133.968,29.796,133.968,29.743,134.074z"/>
<path fill="none" stroke="#20201E" stroke-width="2.684" d="M98.532,78.536c1.234,13.823-5.186,23.698-5.432,24.562
	c0,0,15.556-8.022,17.036-18.641"/>
<path fill="none" stroke="#20201E" stroke-width="2.684" d="M93.109,103.113c0,0,10.37,5.065,18.024,1.855"/>
<path fill="none" stroke="#20201E" stroke-width="2.684" d="M29.396,134.582c0,0,6.913-8.889,8.893-12.963"/>
<path fill="none" stroke="#20201E" stroke-width="2.684" d="M72.005,52.006c0,0-11.387,0.053-15.183,6.294
	c-5.184,8.519,0.738,9.629,0.738,9.629s5.925,1.854,10-3.702c4.338-5.916,0.741-9.629,0.741-9.629l3.687-2.594L72.005,52.006z"/>
<path fill="none" stroke="#20201E" stroke-width="2.684" d="M16.813,115.321c4.075-1.11,6.668-0.738,8.518,0.372
	c0,0-1.85-5.555,1.479-10.371c3.337-4.814,8.888-5.186,13.704-14.443"/>
<line fill="none" stroke="#20201E" stroke-width="2.684" x1="124.952" y1="57.189" x2="131.977" y2="52.746"/>
<line fill="none" stroke="#20201E" stroke-width="2.684" x1="139.404" y1="73.113" x2="146.43" y2="69.782"/>
<line fill="none" stroke="#20201E" stroke-width="2.684" x1="152.36" y1="91.599" x2="160.508" y2="88.26"/>
<line fill="none" stroke="#20201E" stroke-width="2.684" x1="162.725" y1="112.73" x2="171.247" y2="109.765"/>
<line fill="none" stroke="#20201E" stroke-width="2.684" x1="170.873" y1="137.547" x2="179.769" y2="134.956"/>
<line fill="none" stroke="#20201E" stroke-width="2.684" x1="175.681" y1="162.739" x2="184.951" y2="161.617"/>
</svg>
