<?xml version="1.0" encoding="utf-8"?>
<!-- Generator: Adobe Illustrator 24.3.0, SVG Export Plug-In . SVG Version: 6.00 Build 0)  -->
<svg version="1.1" id="Слой_1" xmlns="http://www.w3.org/2000/svg" xmlns:xlink="http://www.w3.org/1999/xlink" x="0px" y="0px"
	 viewBox="0 0 200 200" enable-background="new 0 0 200 200" xml:space="preserve">
<path fill="#20201E" stroke="#20201E" stroke-width="2.684" d="M57.424,35.149c0,0,2.964-15.926,2.964-18.149
	c0-2.22,2.22-2.592,4.443,0.372c2.223,2.964,12.222,17.406,12.222,17.406l-19.635,0.347L57.424,35.149z"/>
<path fill="#20201E" stroke="#20201E" stroke-width="2.684" d="M190.272,157.311c-1.004-7.179-2.379-14.025-4.049-20.534
	l-5.366-2.144l3.584-4.286c-2.043-6.885-4.417-13.367-7.023-19.46l-5.077-1.437l2.538-4.328c-2.729-5.795-5.658-11.202-8.703-16.236
	l-4.732-0.95l1.698-3.909c-3.41-5.26-6.916-10.067-10.393-14.429l-5.009-0.549l1.338-3.903c-4.065-4.775-8.027-8.93-11.693-12.479
	l-5.017-0.282l0.877-3.591c-8.938-8.091-15.259-12.027-15.259-12.027l-11.356,3.457c0,0-5.431-2.965-9.874-5.926
	c0,0-2.964-9.875-3.947-15.308c-0.991-5.429-3.955-2.96-4.938-1.482c-0.991,1.482-11.236,12.839-11.236,12.839s-6.128-0.84-10.49,0
	c-6.42,1.235-9.384,5.557-16.79,12.594c-5.405,5.129-8.645,9.629-10.492,14.441c-1.852,4.814,0.368,4.814-0.37,9.257
	c-0.743,4.447-20.742,37.776-22.96,41.85c-2.225,4.074-7.592,16.53,2.961,24.443c2.958,2.223,5.184,3.337,7.033,4.072
	c0,0,2.964-0.736,4.075-2.217c0.196-0.266,0.3-0.43,0.35-0.519c0.034-0.102,0.052-0.104,0,0c-0.115,0.29-0.376,1.372,0.762,2.737
	c1.852,2.223,4.232,2.061,5.557,2.223c1.972,0.251,5.551-1.479,8.518-5.925c2.961-4.443,4.813-5.927,7.036-8.518
	c2.22-2.593,14.479-8.329,19.261-16.296c1.109-1.848,3.702-1.11,5.551,0.372c1.852,1.482,12.219,1.855,16.665-5.555
	c0,0,2.1,19.481-6.668,32.962c-14.44,22.216-38.884,27.772-46.292,48.512h151.841c0-7.169-0.378-14.051-1.062-20.667l-5.05-2.666
	l4.274-4.141L190.272,157.311z"/>
<path fill="none" stroke="#FFFFFF" stroke-width="2.684" d="M112.054,45.194c0,0,64.682,48.392,64.682,135.791"/>
<path fill="none" stroke="#20201E" stroke-width="2.684" d="M29.936,133.723C29.989,133.643,29.962,133.643,29.936,133.723z"/>
<path fill="none" stroke="#FFFFFF" stroke-width="2.684" d="M98.724,78.773c1.231,13.822-5.186,23.699-5.432,24.563
	c0,0,15.556-8.022,17.038-18.641"/>
<path fill="none" stroke="#FFFFFF" stroke-width="2.684" d="M93.274,103.323c0,0,10.37,5.064,18.024,1.854"/>
<path fill="none" stroke="#20201E" stroke-width="2.684" d="M29.588,134.257c0,0,6.913-8.891,8.891-12.963"/>
<path fill="none" stroke="#FFFFFF" stroke-width="2.684" d="M72.17,52.219c0,0-11.387,0.055-15.186,6.292
	c-5.184,8.52,0.743,9.63,0.743,9.63s5.922,1.854,9.997-3.702c4.338-5.915,0.738-9.63,0.738-9.63l3.687-2.591L72.17,52.219z"/>
<path fill="none" stroke="#FFFFFF" stroke-width="2.684" d="M17.006,114.997c4.072-1.11,6.663-0.741,8.512,0.373
	c0,0-1.85-5.557,1.482-10.372c3.336-4.814,8.893-5.182,13.701-14.44"/>
<line fill="none" stroke="#FFFFFF" stroke-width="2.684" x1="125.117" y1="57.402" x2="132.169" y2="52.967"/>
<line fill="none" stroke="#FFFFFF" stroke-width="2.684" x1="139.569" y1="73.323" x2="146.621" y2="70.011"/>
<line fill="none" stroke="#FFFFFF" stroke-width="2.684" x1="152.525" y1="91.809" x2="160.673" y2="88.47"/>
<line fill="none" stroke="#FFFFFF" stroke-width="2.684" x1="162.917" y1="112.966" x2="171.412" y2="110.001"/>
<line fill="none" stroke="#FFFFFF" stroke-width="2.684" x1="171.038" y1="137.784" x2="179.933" y2="135.192"/>
<line fill="none" stroke="#FFFFFF" stroke-width="2.684" x1="175.873" y1="162.948" x2="185.116" y2="161.853"/>
</svg>
