<?xml version="1.0" encoding="utf-8"?>
<!-- Generator: Adobe Illustrator 24.3.0, SVG Export Plug-In . SVG Version: 6.00 Build 0)  -->
<svg version="1.1" id="Слой_1" xmlns="http://www.w3.org/2000/svg" xmlns:xlink="http://www.w3.org/1999/xlink" x="0px" y="0px"
	 viewBox="0 0 200 200" enable-background="new 0 0 200 200" xml:space="preserve">
<path fill="#20201E" stroke="#20201E" stroke-width="2.684" d="M143.312,35.146c0,0-2.962-15.917-2.962-18.141
	c0-2.219-2.219-2.589-4.441,0.373c-2.222,2.962-12.215,17.397-12.215,17.397l19.598,0.347L143.312,35.146z"/>
<path fill="#20201E" stroke="#20201E" stroke-width="2.684" d="M10.51,157.249c1.005-7.179,2.377-14.021,4.047-20.529l5.365-2.141
	l-3.583-4.282c2.042-6.884,4.413-13.361,7.018-19.451l5.074-1.437l-2.507-4.291c2.726-5.794,5.656-11.197,8.696-16.228l4.731-0.95
	l-1.696-3.907c3.408-5.259,6.91-10.062,10.386-14.422l5.008-0.549l-1.338-3.901c4.063-4.773,8.023-8.926,11.688-12.473l5.012-0.282
	l-0.875-3.589c8.936-8.086,15.25-12.021,15.25-12.021l11.352,3.454c0,0,5.427-2.962,9.871-5.922c0,0,2.959-9.871,3.946-15.301
	c0.988-5.427,3.948-2.959,4.935-1.48c0.99,1.48,11.229,12.833,11.229,12.833s6.125-0.841,10.486,0
	c6.414,1.235,9.378,5.553,16.782,12.586c5.399,5.128,8.637,9.626,10.487,14.435c1.85,4.812-0.368,4.812,0.369,9.253
	c0.743,4.443,20.731,37.755,22.95,41.827c2.226,4.07,7.585,16.526-2.959,24.43c-2.959,2.224-5.185,3.332-7.032,4.073
	c0,0-2.962-0.741-4.07-2.219c-0.198-0.266-0.3-0.428-0.348-0.516c-0.036-0.104-0.055-0.104,0,0c0.113,0.289,0.372,1.372-0.764,2.735
	c-1.85,2.224-4.228,2.057-5.554,2.224c-1.973,0.245-5.55-1.484-8.512-5.924c-2.963-4.446-4.813-5.924-7.034-8.516
	c-2.219-2.589-14.47-8.323-19.25-16.286c-1.109-1.846-3.7-1.108-5.55,0.372c-1.85,1.482-12.216,1.853-16.657-5.553
	c0,0-2.099,19.47,6.663,32.943c14.434,22.208,38.863,27.758,46.27,48.491H8.542c0-7.165,0.377-14.039,1.061-20.654l5.045-2.667
	l-4.224-4.165L10.51,157.249z"/>
<path fill="none" stroke="#FFFFFF" stroke-width="2.684" d="M88.708,45.185c0,0-64.651,48.371-64.651,135.723"/>
<path fill="none" stroke="#20201E" stroke-width="2.684" d="M170.787,133.672C170.733,133.592,170.733,133.592,170.787,133.672z"/>
<path fill="none" stroke="#FFFFFF" stroke-width="2.684" d="M102.032,78.748c-1.232,13.817,5.185,23.687,5.43,24.551
	c0,0-15.548-8.017-17.029-18.632"/>
<path fill="none" stroke="#FFFFFF" stroke-width="2.684" d="M107.452,103.286c0,0-10.365,5.061-18.014,1.853"/>
<path fill="none" stroke="#20201E" stroke-width="2.684" d="M171.134,134.206c0,0-6.911-8.889-8.888-12.959"/>
<path fill="none" stroke="#FFFFFF" stroke-width="2.684" d="M128.546,52.208c0,0,11.382,0.057,15.177,6.291
	c5.182,8.516-0.739,9.624-0.739,9.624s-5.923,1.854-9.995-3.7c-4.335-5.911-0.741-9.624-0.741-9.624l-3.685-2.59L128.546,52.208z"/>
<path fill="none" stroke="#FFFFFF" stroke-width="2.684" d="M183.71,114.955c-4.073-1.108-6.663-0.743-8.511,0.373
	c0,0,1.847-5.555-1.48-10.367c-3.335-4.812-8.888-5.181-13.697-14.435"/>
<line fill="none" stroke="#FFFFFF" stroke-width="2.684" x1="75.625" y1="57.414" x2="68.603" y2="52.955"/>
<line fill="none" stroke="#FFFFFF" stroke-width="2.684" x1="61.191" y1="73.328" x2="54.158" y2="69.991"/>
<line fill="none" stroke="#FFFFFF" stroke-width="2.684" x1="48.238" y1="91.778" x2="40.094" y2="88.441"/>
<line fill="none" stroke="#FFFFFF" stroke-width="2.684" x1="37.868" y1="112.925" x2="29.361" y2="109.962"/>
<line fill="none" stroke="#FFFFFF" stroke-width="2.684" x1="29.729" y1="137.73" x2="20.843" y2="135.14"/>
<line fill="none" stroke="#FFFFFF" stroke-width="2.684" x1="24.915" y1="162.882" x2="15.663" y2="161.788"/>
</svg>
