<?xml version="1.0" encoding="utf-8"?>
<!-- Generator: Adobe Illustrator 24.3.0, SVG Export Plug-In . SVG Version: 6.00 Build 0)  -->
<svg version="1.1" id="Слой_1" xmlns="http://www.w3.org/2000/svg" xmlns:xlink="http://www.w3.org/1999/xlink" x="0px" y="0px"
	 viewBox="0 0 200 200" enable-background="new 0 0 200 200" xml:space="preserve">
<path fill="#FFFFFF" stroke="#20201E" stroke-width="3.4947" d="M143.511,34.945c0,0-2.963-15.92-2.963-18.141
	s-2.218-2.592-4.441,0.37c-2.222,2.961-12.217,17.4-12.217,17.4l19.601,0.369L143.511,34.945z"/>
<path fill="#FFFFFF" stroke="#20201E" stroke-width="3.4947" d="M10.685,157.055c1.004-7.18,2.378-14.024,4.049-20.531l5.364-2.141
	l-3.581-4.285c2.039-6.882,4.411-13.363,7.018-19.455l5.076-1.434l-2.51-4.292c2.727-5.793,5.657-11.197,8.696-16.229l4.733-0.951
	l-1.698-3.908c3.41-5.26,6.912-10.064,10.387-14.424l5.01-0.549l-1.338-3.901c4.066-4.775,8.029-8.928,11.692-12.476l5.011-0.282
	l-0.876-3.59c8.937-8.087,15.252-12.022,15.252-12.022l11.354,3.457c0,0,5.428-2.963,9.872-5.924c0,0,2.96-9.872,3.946-15.302
	c0.99-5.43,3.95-2.963,4.937-1.481c0.99,1.481,11.231,12.832,11.231,12.832s6.127-0.837,10.49,0
	c6.414,1.237,9.377,5.555,16.784,12.588c5.397,5.131,8.636,9.628,10.486,14.438c1.85,4.813-0.369,4.813,0.369,9.255
	c0.745,4.443,20.734,37.76,22.952,41.833c2.226,4.072,7.589,16.526-2.959,24.433c-2.96,2.222-5.184,3.335-7.032,4.072
	c0,0-2.964-0.737-4.072-2.218c-0.198-0.265-0.3-0.426-0.348-0.516c-0.035-0.099-0.055-0.106,0,0c0.113,0.288,0.372,1.37-0.764,2.734
	c-1.852,2.223-4.229,2.058-5.552,2.223c-1.975,0.248-5.554-1.479-8.516-5.924c-2.963-4.443-4.813-5.925-7.036-8.516
	c-2.218-2.591-14.471-8.324-19.251-16.289c-1.11-1.848-3.7-1.111-5.551,0.372c-1.85,1.481-12.218,1.853-16.658-5.555
	c0,0-2.101,19.476,6.663,32.951c14.436,22.213,38.871,27.762,46.279,48.498H8.744c0-7.165,0.378-14.045,1.061-20.662l5.047-2.663
	l-4.227-4.113L10.685,157.055z"/>
<path fill="none" stroke="#20201E" stroke-width="2.684" d="M88.9,44.986c0,0-64.657,48.378-64.657,135.745"/>
<path fill="none" stroke="#20201E" stroke-width="2.684" d="M170.991,134.063C170.937,133.956,170.937,133.956,170.991,134.063z"/>
<path fill="none" stroke="#20201E" stroke-width="2.684" d="M102.226,78.543c-1.234,13.818,5.184,23.69,5.431,24.553
	c0,0-15.552-8.019-17.031-18.635"/>
<path fill="none" stroke="#20201E" stroke-width="2.684" d="M107.647,103.112c0,0-10.369,5.063-18.018,1.854"/>
<path fill="none" stroke="#20201E" stroke-width="2.684" d="M171.338,134.57c0,0-6.912-8.886-8.889-12.958"/>
<path fill="none" stroke="#20201E" stroke-width="2.684" d="M128.744,52.023c0,0,11.383,0.053,15.181,6.292
	c5.18,8.516-0.741,9.626-0.741,9.626s-5.923,1.853-9.996-3.7c-4.336-5.913-0.741-9.626-0.741-9.626l-3.685-2.593L128.744,52.023z"/>
<path fill="none" stroke="#20201E" stroke-width="2.684" d="M183.916,115.316c-4.076-1.11-6.666-0.738-8.513,0.372
	c0,0,1.848-5.554-1.481-10.368c-3.335-4.813-8.886-5.184-13.699-14.438"/>
<line fill="none" stroke="#20201E" stroke-width="2.684" x1="75.815" y1="57.204" x2="68.792" y2="52.763"/>
<line fill="none" stroke="#20201E" stroke-width="2.684" x1="61.376" y1="73.122" x2="54.339" y2="69.792"/>
<line fill="none" stroke="#20201E" stroke-width="2.684" x1="48.421" y1="91.602" x2="40.276" y2="88.264"/>
<line fill="none" stroke="#20201E" stroke-width="2.684" x1="38.052" y1="112.726" x2="29.538" y2="109.761"/>
<line fill="none" stroke="#20201E" stroke-width="2.684" x1="29.91" y1="137.534" x2="21.022" y2="134.944"/>
<line fill="none" stroke="#20201E" stroke-width="2.684" x1="25.095" y1="162.717" x2="15.841" y2="161.595"/>
</svg>
