<?xml version="1.0" encoding="utf-8"?>
<!-- Generator: Adobe Illustrator 24.3.0, SVG Export Plug-In . SVG Version: 6.00 Build 0)  -->
<svg version="1.1" id="Слой_1" xmlns="http://www.w3.org/2000/svg" xmlns:xlink="http://www.w3.org/1999/xlink" x="0px" y="0px"
	 viewBox="0 0 200 200" enable-background="new 0 0 200 200" xml:space="preserve">
<path fill="#FFFFFF" stroke="#000000" stroke-width="3.4947" stroke-linejoin="round" d="M123.404,163.638
	c-10.873-21.588-9.775-60.039-8.866-74.934c17.197-1.179,29.564-4.437,29.564-8.275c0-3.767-11.904-6.978-28.602-8.209
	c10.664-5.495,17.961-16.607,17.961-29.431c0-18.278-14.812-33.096-33.093-33.096c-18.281,0-33.093,14.818-33.093,33.096
	c0,12.823,7.294,23.936,17.961,29.431c-16.695,1.23-28.605,4.441-28.605,8.209c0,3.838,12.374,7.096,29.567,8.275
	c0.912,14.896,2.01,53.347-8.863,74.934c-21.311,4.284-36.265,14.339-36.265,26.055h118.593c0-11.714-14.933-21.776-36.245-26.067
	L123.404,163.638z"/>
</svg>
