<?xml version="1.0" encoding="utf-8"?>
<!-- Generator: Adobe Illustrator 24.3.0, SVG Export Plug-In . SVG Version: 6.00 Build 0)  -->
<svg version="1.1" id="Слой_1" xmlns="http://www.w3.org/2000/svg" xmlns:xlink="http://www.w3.org/1999/xlink" x="0px" y="0px"
	 viewBox="0 0 200 200" enable-background="new 0 0 200 200" xml:space="preserve">
<path stroke="#000000" stroke-width="2.4843" stroke-linejoin="round" d="M123.404,163.637
	c-10.873-21.585-9.775-60.036-8.866-74.934c17.197-1.179,29.564-4.436,29.564-8.274c0-3.767-11.904-6.977-28.602-8.209
	c10.664-5.496,17.961-16.606,17.961-29.428c0-18.281-14.812-33.099-33.093-33.099c-18.281,0-33.093,14.818-33.093,33.099
	c0,12.822,7.3,23.931,17.961,29.428c-16.695,1.232-28.605,4.441-28.605,8.209c0,3.838,12.374,7.095,29.567,8.274
	c0.912,14.9,2.01,53.349-8.863,74.934c-21.311,4.284-36.265,14.342-36.265,26.057h118.593c0-11.714-14.933-21.776-36.245-26.067
	L123.404,163.637z"/>
</svg>
