<?xml version="1.0" encoding="utf-8"?>
<!-- Generator: Adobe Illustrator 24.3.0, SVG Export Plug-In . SVG Version: 6.00 Build 0)  -->
<svg version="1.1" id="Слой_1" xmlns="http://www.w3.org/2000/svg" xmlns:xlink="http://www.w3.org/1999/xlink" x="0px" y="0px"
	 viewBox="0 0 200 200" enable-background="new 0 0 200 200" xml:space="preserve">
<path stroke="#000000" stroke-width="2.684" stroke-linejoin="bevel" d="M189.295,61.415c2.187-3.754,0.924-8.57-2.83-10.758
	c-3.746-2.19-8.562-0.924-10.752,2.829c-1.878,3.217-1.21,7.208,1.379,9.662c-10.712,12.987-30.258,36.676-34.982,42.42
	c-1.386-0.618-2.822-1.207-4.314-1.758c0.422-4.403,3.518-38.031,5.163-55.914c3.568,0.082,6.857-2.281,7.792-5.886
	c1.087-4.206-1.439-8.496-5.642-9.586c-4.208-1.087-8.497,1.439-9.587,5.643c-0.932,3.602,0.796,7.264,3.957,8.928
	c-7.746,17.577-22.777,51.7-22.814,51.841c-0.008,0.034-0.003,0.069-0.01,0.103c-1.366-0.164-2.77-0.306-4.196-0.424
	c-0.286-1.891-6.732-41.446-10.094-62.046c3.862-0.903,6.742-4.359,6.742-8.497c0-4.827-3.912-8.741-8.741-8.741
	c-4.824,0-8.738,3.913-8.738,8.741c0,4.138,2.883,7.594,6.744,8.497c-3.345,20.507-9.75,59.794-10.086,62.013
	c-1.497,0.118-2.955,0.264-4.384,0.428c-0.01-0.049-0.008-0.09-0.023-0.137c-0.035-0.141-15.068-34.267-22.81-51.844
	c3.159-1.659,4.886-5.322,3.955-8.927c-1.09-4.203-5.381-6.729-9.587-5.641c-4.201,1.089-6.729,5.38-5.64,9.583
	c0.934,3.606,4.221,5.967,7.789,5.885c1.642,17.864,4.728,51.422,5.163,55.899c-1.466,0.531-2.873,1.104-4.238,1.704
	c-4.909-5.967-24.238-29.397-34.874-42.281c2.594-2.454,3.264-6.446,1.386-9.662c-2.187-3.753-7.006-5.018-10.757-2.829
	c-3.749,2.188-5.014,7.004-2.825,10.758c1.876,3.213,5.682,4.596,9.095,3.546c6.395,16.656,27.039,70.267,27.828,71.005h0.008
	c0.015,0.093,2.044,13.391,2.267,17.8c0.223,4.386-1.685,15.119-1.547,15.181v0.01c0.003,0,0.005-0.005,0.008-0.005
	c15.309,7.169,32.745,11.199,51.443,11.199c18.872,0,52.939-11.54,52.78-11.616c-2.227-4.701-1.386-32.575-1.386-32.575
	c0.788-0.746,21.702-53.906,28.266-70.999c3.368,1.054,7.174-0.334,9.051-3.548"/>
<g>
	<path stroke="#FFFFFF" stroke-width="2.9123" stroke-linecap="round" d="M52.891,165.756c16.098-6.634,31.166-9.481,49.63-9.481
		c17.733,0,31.927,2.935,46.768,9.085"/>
	<path stroke="#FFFFFF" stroke-width="2.9123" stroke-linecap="round" d="M146.226,134.67c-13.095-5.032-29.137-7.992-46.467-7.992
		c-17.486,0-33.657,3.013-46.814,8.126"/>
</g>
<path fill="none" stroke="#FFFFFF" stroke-width="2.9123" stroke-linecap="round" d="M147.795,156.577
	c-14.493-4.788-29.248-8.264-45.86-8.264c-16.926,0-33.238,3.576-48.532,8.537"/>
<polygon fill="#FFFFFF" points="93.13,138.681 100.433,142.332 107.761,138.681 100.433,135.03 "/>
<polygon fill="#FFFFFF" points="137.638,143.438 129.848,145.88 123.214,141.098 131.005,138.655 "/>
<polygon fill="#FFFFFF" points="63.253,143.438 71.044,145.88 77.677,141.098 69.887,138.655 "/>
</svg>
