<?xml version="1.0" encoding="utf-8"?>
<!-- Generator: Adobe Illustrator 24.3.0, SVG Export Plug-In . SVG Version: 6.00 Build 0)  -->
<svg version="1.1" id="Слой_1" xmlns="http://www.w3.org/2000/svg" xmlns:xlink="http://www.w3.org/1999/xlink" x="0px" y="0px"
	 viewBox="0 0 200 200" enable-background="new 0 0 200 200" xml:space="preserve">
<path fill="#FFFFFF" stroke="#20201E" stroke-width="3.4947" stroke-linejoin="bevel" d="M152.875,168.568
	c-15.602-7.295-32.702-11.125-51.58-11.125c-18.878,0-37.177,4.182-53.292,11.478c15.602,7.289,33.301,11.393,52.181,11.393
	c18.903,0.026,36.598-4.449,52.698-11.728L152.875,168.568z"/>
<path fill="#FFFFFF" stroke="#20201E" stroke-width="3.4947" stroke-linejoin="bevel" d="M151.718,135.828l-0.01-0.018
	c-14.025-5.782-30.343-9.299-51.531-9.299c-21.213,0-37.614,3.52-52.05,9.317c0,0,1.575,13.383,1.64,17.809
	c0.078,4.984-1.316,15.198-1.316,15.198c16.114-7.296,33.975-11.398,52.853-11.398c18.516,0,37.334,3.8,51.58,11.125
	c-2.34-4.681-1.157-32.715-1.157-32.715L151.718,135.828z"/>
<path fill="#FFFFFF" stroke="#20201E" stroke-width="3.4947" stroke-linejoin="bevel" d="M48.507,168.748
	c15.168-7.213,33.918-11.312,52.796-11.312c18.516,0,34.06,2.611,51.58,11.125c-0.706-1.968-1.178-8.081-1.331-10.299
	c-15.507-5.761-32.609-9.031-50.211-9.031c-17.797,0-35.703,3.448-51.767,9.327c-0.334,2.289-1.054,10.159-1.054,10.159
	L48.507,168.748z"/>
<path fill="#FFFFFF" stroke="#20201E" stroke-width="3.4947" d="M186.516,50.505c-3.75-2.19-8.567-0.924-10.757,2.831
	c-1.881,3.217-1.211,7.208,1.379,9.666c-10.715,12.988-30.271,36.683-34.991,42.431c-1.386-0.619-2.823-1.207-4.317-1.756
	c0.424-4.408,3.521-38.044,5.164-55.934c3.569,0.082,6.862-2.282,7.794-5.885c1.088-4.208-1.437-8.501-5.646-9.589
	c-4.202-1.089-8.494,1.438-9.584,5.644c-0.934,3.604,0.796,7.269,3.958,8.928c-7.748,17.586-22.783,51.716-22.82,51.857
	c-0.008,0.034-0.003,0.069-0.01,0.104c-1.366-0.162-2.77-0.306-4.202-0.424c-0.284-1.892-6.731-41.457-10.092-62.063
	c3.863-0.904,6.739-4.361,6.739-8.501c0-4.825-3.911-8.742-8.738-8.742c-4.827,0-8.74,3.917-8.74,8.742
	c0,4.139,2.883,7.596,6.744,8.501c-3.346,20.514-9.753,59.81-10.089,62.029c-1.494,0.121-2.956,0.262-4.383,0.431
	c-0.01-0.05-0.008-0.093-0.023-0.138c-0.035-0.142-15.072-34.276-22.816-51.86c3.157-1.658,4.885-5.321,3.953-8.928
	c-1.088-4.206-5.383-6.732-9.587-5.644c-4.204,1.089-6.731,5.381-5.641,9.586c0.934,3.608,4.222,5.969,7.791,5.886
	c1.643,17.87,4.729,51.436,5.164,55.913c-1.467,0.535-2.878,1.106-4.24,1.708c-4.91-5.973-24.245-29.407-34.883-42.295
	c2.594-2.458,3.263-6.449,1.386-9.666c-2.188-3.755-7.007-5.021-10.76-2.831c-3.75,2.189-5.018,7.006-2.831,10.761
	c1.881,3.215,5.689,4.597,9.102,3.548c6.397,16.661,27.046,70.282,27.836,71.023c14.233-5.793,30.601-9.317,51.809-9.317
	c21.198,0,37.56,3.52,51.796,9.312c0.784-0.742,21.705-53.923,28.268-71.018c3.416,1.05,7.221-0.333,9.1-3.548
	c2.109-3.752,0.849-8.57-2.906-10.758L186.516,50.505z"/>
<polygon points="93.156,138.374 100.46,142.026 107.79,138.374 100.46,134.722 "/>
<polygon points="63.27,143.106 71.063,145.524 77.698,140.74 69.905,138.322 "/>
<polygon points="137.675,143.132 129.882,145.575 123.247,140.791 131.04,138.348 "/>
</svg>
