<?xml version="1.0" encoding="utf-8"?>
<!-- Generator: Adobe Illustrator 24.3.0, SVG Export Plug-In . SVG Version: 6.00 Build 0)  -->
<svg version="1.1" id="Слой_1" xmlns="http://www.w3.org/2000/svg" xmlns:xlink="http://www.w3.org/1999/xlink" x="0px" y="0px"
	 viewBox="0 0 200 200" enable-background="new 0 0 200 200" xml:space="preserve">
<g>
	<path stroke="#000000" stroke-width="2.684" stroke-linecap="square" d="M164.878,171.046h-2.643v-15.875l-12.721-14.245h-0.129
		V56.892h0.129l16.551-15.831h0.105V13.977c0-2.367-1.837-4.284-4.099-4.284h-22.898v14.721l-12.852,4.258l-11.842-4.258V9.693
		H86.256v14.721l-11.845,4.258l-12.85-4.258V9.693H38.667c-2.263,0-4.098,1.917-4.098,4.284v27.084h0.047l16.61,15.831v84.034
		l-12.722,14.245v15.875h-2.645c-2.367,0-4.286,1.92-4.286,4.289v10.073c0,2.364,1.918,4.284,4.286,4.284h129.015
		c2.37,0,4.287-1.92,4.287-4.284v-10.073c0-2.345-1.919-4.281-4.289-4.281L164.878,171.046z"/>
	
		<line fill="none" stroke="#FFFFFF" stroke-width="2.684" stroke-linecap="round" x1="42.696" y1="171.046" x2="157.102" y2="171.046"/>
	
		<line fill="none" stroke="#FFFFFF" stroke-width="2.684" stroke-linecap="round" x1="43.201" y1="155.178" x2="156.6" y2="155.178"/>
	
		<line fill="none" stroke="#FFFFFF" stroke-width="2.684" stroke-linecap="round" x1="144.505" y1="140.945" x2="54.29" y2="140.945"/>
	
		<line fill="none" stroke="#FFFFFF" stroke-width="2.684" stroke-linecap="round" x1="54.792" y1="56.911" x2="145.009" y2="56.911"/>
	
		<line fill="none" stroke="#FFFFFF" stroke-width="2.684" stroke-linecap="round" x1="40.177" y1="41.069" x2="162.645" y2="41.069"/>
</g>
</svg>
