<?xml version="1.0" encoding="utf-8"?>
<!-- Generator: Adobe Illustrator 24.3.0, SVG Export Plug-In . SVG Version: 6.00 Build 0)  -->
<svg version="1.1" id="Слой_1" xmlns="http://www.w3.org/2000/svg" xmlns:xlink="http://www.w3.org/1999/xlink" x="0px" y="0px"
	 viewBox="0 0 200 200" enable-background="new 0 0 200 200" xml:space="preserve">
<path fill="#FFFFFF" stroke="#20201E" stroke-width="3.4947" d="M164.872,189.693c2.37,0,4.285-1.917,4.285-4.287v-10.072
	c0-2.37-1.916-4.285-4.285-4.285H35.861c-2.368,0-4.285,1.916-4.285,4.285v10.072c0,2.37,1.917,4.287,4.285,4.287H164.872z"/>
<rect x="38.505" y="155.176" fill="#FFFFFF" stroke="#20201E" stroke-width="3.4947" width="123.725" height="15.876"/>
<polygon fill="#FFFFFF" stroke="#20201E" stroke-width="3.4947" stroke-linejoin="bevel" points="162.23,155.176 149.508,140.916 
	51.227,140.916 38.505,155.176 "/>
<polygon fill="#FFFFFF" stroke="#20201E" stroke-width="3.4947" stroke-linejoin="round" points="166.107,41.015 149.508,56.894 
	51.227,56.894 34.574,41.015 "/>
<rect x="51.227" y="56.894" fill="#FFFFFF" stroke="#20201E" stroke-width="3.4947" width="98.151" height="84.03"/>
<path fill="#FFFFFF" stroke="#20201E" stroke-width="3.4947" stroke-linecap="square" d="M162.064,9.694h-22.893v14.721
	l-12.847,4.255l-11.846-4.255V9.694H86.259v14.721L74.414,28.67l-12.848-4.255V9.694H38.672c-2.263,0-4.098,1.917-4.098,4.283
	v27.085h131.591V13.976c-0.003-2.367-1.838-4.283-4.101-4.283L162.064,9.694z"/>
</svg>
